HIERARCHY
ROOT Hips
{
  OFFSET 57.8838 95.319 338.509
  CHANNELS 6 Xposition Yposition Zposition Zrotation Xrotation Yrotation
  JOINT LeftUpLeg
  {
    OFFSET 8.64259 1.95398 -2.38835
    CHANNELS 3 Zrotation Xrotation Yrotation
    JOINT LeftLeg
    {
      OFFSET 43.7702 0 0
      CHANNELS 3 Zrotation Xrotation Yrotation
      JOINT LeftFoot
      {
        OFFSET 40.6238 0 0
        CHANNELS 3 Zrotation Xrotation Yrotation
        JOINT LeftToeBase
        {
          OFFSET 12.7242 0 0
          CHANNELS 3 Zrotation Xrotation Yrotation
          End Site
          {
            OFFSET 0 0 0
          }
        }
      }
    }
  }
  JOINT RightUpLeg
  {
    OFFSET -8.2249 1.95398 -2.59336
    CHANNELS 3 Zrotation Xrotation Yrotation
    JOINT RightLeg
    {
      OFFSET 43.5653 0 0
      CHANNELS 3 Zrotation Xrotation Yrotation
      JOINT RightFoot
      {
        OFFSET 40.6238 0 0
        CHANNELS 3 Zrotation Xrotation Yrotation
        JOINT RightToeBase
        {
          OFFSET 12.7242 0 0
          CHANNELS 3 Zrotation Xrotation Yrotation
          End Site
          {
            OFFSET 0 0 0
          }
        }
      }
    }
  }
  JOINT Spine
  {
    OFFSET 0.165834 0.87714 6.61349
    CHANNELS 3 Zrotation Xrotation Yrotation
    JOINT Spine1
    {
      OFFSET 7.38963 1.71661e-005 0
      CHANNELS 3 Zrotation Xrotation Yrotation
      JOINT Spine2
      {
        OFFSET 11.9445 1.14441e-005 0
        CHANNELS 3 Zrotation Xrotation Yrotation
        JOINT Spine3
        {
          OFFSET 14.7254 4.19617e-005 0
          CHANNELS 3 Zrotation Xrotation Yrotation
          JOINT Spine4
          {
            OFFSET 10.9679 0 0
            CHANNELS 3 Zrotation Xrotation Yrotation
            JOINT RightShoulder
            {
              OFFSET 2.46616 -1.6653 3.69651
              CHANNELS 3 Zrotation Xrotation Yrotation
              JOINT RightArm
              {
                OFFSET 13.0012 0 0
                CHANNELS 3 Zrotation Xrotation Yrotation
                JOINT RightForeArm
                {
                  OFFSET 28.7848 1.62311e-005 0
                  CHANNELS 3 Zrotation Xrotation Yrotation
                  JOINT RightHand
                  {
                    OFFSET 26.5688 1.62095e-005 0
                    CHANNELS 3 Zrotation Xrotation Yrotation
                    End Site
                    {
                      OFFSET 0 0 0
                    }
                  }
                }
              }
            }
            JOINT LeftShoulder
            {
              OFFSET 2.38034 -1.29275 -3.7523
              CHANNELS 3 Zrotation Xrotation Yrotation
              JOINT LeftArm
              {
                OFFSET 16.3182 6.07031e-005 0
                CHANNELS 3 Zrotation Xrotation Yrotation
                JOINT LeftForeArm
                {
                  OFFSET 27.0901 0 0
                  CHANNELS 3 Zrotation Xrotation Yrotation
                  JOINT LeftHand
                  {
                    OFFSET 24.5451 1.51738e-005 0
                    CHANNELS 3 Zrotation Xrotation Yrotation
                    End Site
                    {
                      OFFSET 0 0 0
                    }
                  }
                }
              }
            }
            JOINT Neck
            {
              OFFSET 5.0226 -0.0266342 0
              CHANNELS 3 Zrotation Xrotation Yrotation
              JOINT Head
              {
                OFFSET 6.69364 2.86102e-005 0
                CHANNELS 3 Zrotation Xrotation Yrotation
                End Site
                {
                  OFFSET 0 0 0
                }
              }
            }
          }
        }
      }
    }
  }
}
MOTION
Frames:	17
Frame Time:	0.0416667
1016.31 151.313 370.312 -10.0706 -41.4937 -99.9925 101.039 77.5829 -145.06 -0.405286 13.9569 -0.157123 -31.9505 -6.66225 -49.5459 19.8918 -1.18444 -16.9362 145.743 -15.9003 40.9359 -9.53484 42.5257 7.1244 72.4489 14.3409 52.7254 37.8652 -6.45514 46.2311 -2.33801 8.43276 -86.516 10.0554 -3.07439 7.16916 -1.63234 -2.75675 7.2966 -24.0804 -5.08344 5.92031 -4.06772 -5.08344 5.92029 102.408 -4.18727 -81.415 17.254 28.9626 -6.68338 -47.7123 43.6912 -116.278 -21.3068 -2.04798 5.97595 -78.5644 -37.605 95.7365 19.6306 19.972 -40.2439 10.2247 16.4094 -144.848 -0.20423 -1.16065 -20.0937 30.0794 -18.872 1.4957 4.64981 -19.4109 -17.0485 
1014.26 143.51 356.393 -9.00469 -35.2873 -98.5547 112.505 76.9657 -149.346 -0.483383 13.7397 -0.19836 -28.052 -7.44403 -46.4572 19.6017 -1.1921 -17.4172 151.188 -13.2101 39.5879 -7.49051 22.2775 4.11951 80.0266 20.4785 50.8138 34.8348 -4.47523 51.2126 -1.24664 8.54965 -87.1017 9.76904 -1.17355 5.84342 -1.91482 -0.91569 5.88917 -24.3644 -2.87306 5.22364 -4.35175 -2.87304 5.22363 103.079 -1.47755 -78.858 22.2715 18.096 -8.18497 -70.2435 51.9726 -98.6381 -18.6363 -2.30204 9.09946 -78.0864 -34.5822 96.5225 5.48671 1.71042 -26.5102 5.22762 16.8259 -141.116 -29.0024 2.11811 -13.3097 29.2186 -20.6333 5.28588 8.13725 -22.6647 -14.7828 
1013.12 143.75 356.813 -6.59982 -30.0423 -95.6242 119.108 75.0895 -150.053 -0.517333 15.419 -0.225682 -25.989 -9.98692 -49.6276 20.1023 -1.33942 -15.3982 155.342 -10.4093 40.4338 -7.14681 15.1605 3.42647 79.1618 22.6631 48.7691 28.2951 -1.14956 55.3001 -0.92245 8.18493 -87.5821 10.4927 -0.728053 4.8667 -1.18733 -0.513421 4.89392 -23.661 -2.15565 4.42446 -3.64833 -2.15564 4.42447 103.47 -0.894026 -77.2895 22.1814 11.2249 -13.9228 -74.9329 53.0391 -95.1044 -18.3587 -2.20999 8.82138 -77.1246 -29.7722 98.3955 -2.99406 -33.9973 -19.1493 -0.23632 11.7782 -142.516 -35.0791 3.57024 -17.6071 30.6866 -17.7522 5.52295 10.3116 -19.9624 -10.8047 
1003.99 148.264 370.211 -5.88796 -29.7888 -94.8825 127.877 72.9637 -158.141 -0.523835 18.5031 -0.224555 -24.2675 -14.0979 -59.176 18.6487 -1.95209 -13.8841 156.181 -10.3826 39.7068 -7.10453 9.2902 3.57821 77.7299 24.9471 42.1753 17.93 3.83461 55.01 -1.00999 7.55985 -88.1793 11.7594 -1.15356 3.75136 0.0834327 -0.987451 3.79838 -22.4216 -2.22712 3.23215 -2.40897 -2.22713 3.23212 103.849 -0.944824 -75.8397 16.4609 -3.13227 -21.259 -83.1569 50.9076 -87.4406 -20.4388 -2.48893 8.93141 -76.7158 -25.4006 99.2972 -14.0665 -52.3706 -43.0921 5.35868 -1.57655 -134.501 -3.52375 -0.0757474 -5.84114 28.7774 -13.5086 6.13681 11.1992 -15.8428 -7.13545 
992.396 157.192 393.758 -3.79159 -28.4457 -95.8293 143.445 69.3885 -172.666 -0.621474 17.8458 -0.255857 -22.981 -18.6423 -73.2171 18.7611 -2.24033 -11.7852 157.625 -6.83857 35.8186 -7.34115 5.49978 6.62617 70.3231 33.7838 41.5626 9.8418 8.14883 53.0573 -1.32017 6.96508 -88.7627 12.9638 -2.02709 2.72362 1.29145 -1.90531 2.81012 -21.2429 -2.75176 1.98869 -1.23018 -2.75177 1.98867 103.824 -2.79684 -76.2667 9.39966 -11.317 -29.191 -86.4929 49.9209 -85.2528 -17.9526 -1.69942 5.84529 -76.8342 -21.8264 99.1345 -14.2719 -55.5401 -61.7515 6.13118 -5.73931 -115.065 11.0364 0.0861456 -2.74223 28.9842 -7.97708 5.95507 12.712 -10.4292 -5.02708 
959.815 174.435 417.098 -0.45337 -23.6018 -98.6415 165.737 61.6493 166.117 -0.969419 15.2019 -0.410542 -14.5113 -26.9873 -83.2388 18.3823 -2.49966 -10.8391 158.854 1.20618 26.3686 -7.20471 4.40677 12.9285 69.4963 35.9041 43.1074 3.96569 14.4555 42.9918 -1.2926 6.6339 -89.368 13.6244 -2.2569 1.55559 1.95431 -2.18625 1.65342 -20.5942 -2.62006 0.805063 -0.58155 -2.62004 0.805059 103.837 -3.97568 -76.3911 -1.65739 -26.6595 -37.8185 -108.807 48.2587 -67.0281 -21.5595 -2.59938 8.81967 -76.7746 -22.0806 99.2659 -6.26588 -58.2244 -65.6854 8.64281 -7.81595 -98.7555 16.9635 0.34144 -1.78126 32.1111 -3.35624 7.8785 13.5592 -6.59964 -1.74278 
912.482 190.984 436.638 -0.223828 -17.3309 -102.314 178.336 46.493 152.644 -1.56002 14.4049 -0.670141 -1.77678 -37.7866 -89.9143 19.1857 -2.36484 -10.1064 156.576 11.4335 22.0731 -7.05929 10.4318 5.12017 54.8282 36.3202 57.5442 23.1959 2.11349 44.0388 -0.859141 6.93772 -89.8221 12.9952 -1.6197 0.559731 1.325 -1.5935 0.630457 -21.2171 -1.71303 0.046932 -1.20447 -1.71303 0.046921 104.752 -9.34031 -74.1804 -13.3196 -29.2333 -47.6895 -109.714 48.0349 -66.6076 -21.2226 -2.25662 7.18263 -76.9487 -19.7588 98.9067 -7.95591 -60.3199 -63.8697 22.5575 -7.6059 -95.577 19.3764 0.732552 -0.0918292 36.0781 -0.88451 6.55194 13.5124 -3.32349 2.71246 
825.754 207.767 476.796 -1.21965 -6.00449 -103.99 -172.797 27.7211 140.961 -2.17712 16.6923 -0.987328 22.8714 -46.1877 -77.4225 19.8582 -1.3053 -16.1296 155.551 22.2694 13.5969 -2.77383 3.87568 0.98463 37.0545 34.3444 73.6294 31.1645 -2.60034 46.4339 -0.469976 7.44663 -90.8518 11.9692 -1.33609 -1.55413 0.298062 -1.40315 -1.49383 -22.2321 -0.807328 -1.88372 -2.21941 -0.807321 -1.88373 102.54 -9.88659 -81.0761 -25.9262 -33.327 -50.4568 -117.491 46.2207 -60.3398 -26.2146 -3.31712 9.32003 -77.3986 -25.7887 97.8545 -12.9296 -64.7036 -56.2694 33.487 -12.8821 -105.7 15.795 0.617993 0.0594953 35.421 5.71324 8.26885 13.7344 2.46189 5.02165 
708.533 200.97 533.192 3.49178 11.3283 -103.297 -164.399 10.824 131.144 -3.22585 10.5323 -1.58828 49.5265 -41.9364 -59.5974 20.3069 -0.443327 -21.7428 177.734 41.5569 -4.85932 -0.577592 -14.8071 0.178636 2.00905 39.0503 105.841 34.84 -4.64184 47.7641 0.717808 7.89505 -91.5531 11.0796 0.708552 -3.15406 -0.595214 0.569111 -3.18216 -23.1051 1.62328 -2.79585 -3.09242 1.62326 -2.79585 100.539 -9.88649 -87.0234 -33.0511 -34.618 -52.0405 -119.555 44.2965 -59.2842 -26.2754 -3.09537 8.33698 -76.7754 -31.602 99.0164 -21.8077 -67.4124 -56.1496 28.1512 -16.7796 -118.431 11.3843 0.171492 -2.14884 35.9327 11.6507 9.61162 15.6615 7.50242 5.08644 
599.604 174.14 580.484 -0.052754 22.0743 -99.3525 -162.502 -2.39452 125.95 -4.36511 7.78765 -1.85962 61.9996 -33.3683 -50.6146 18.9587 -0.824638 -20.9583 -130.112 55.6435 -43.1799 -0.0867606 -20.9417 0.0697161 -36.8083 19.9135 128.372 38.2967 -6.40537 49.5797 1.8027 8.63363 -92.2918 9.64836 2.55989 -4.76055 -2.02897 2.3481 -4.86832 -24.5383 3.87152 -3.77289 -4.52565 3.87151 -3.7729 99.9158 -13.4517 -88.4392 -38.5746 -40.4519 -53.5346 -114.347 42.7737 -63.5359 -29.4972 -2.81781 5.76643 -76.324 -34.1287 99.804 -18.6644 -62.3219 -51.2849 22.8071 -16.395 -129.851 10.4387 0.449544 0.460547 35.8641 12.9816 10.0984 15.5916 8.76362 6.38141 
530.763 152.965 607.52 -7.82866 25.3938 -93.05 -162.543 -11.7574 125.516 -5.29492 7.34954 -1.73717 66.0061 -28.0037 -47.6133 16.7718 -1.13396 -21.8746 -93.2702 55.0105 -65.9499 -0.0877772 -13.1076 0.0768686 -54.2558 0.157152 113.168 36.6742 -5.84319 45.4787 2.28343 9.37581 -93.1593 8.16713 3.17167 -6.43123 -3.51657 2.88618 -6.56388 -25.9923 4.95543 -5.18538 -5.97963 4.95543 -5.1854 99.8191 -16.8992 -88.2321 -36.0765 -42.1988 -47.5581 -109.621 44.3437 -66.4857 -25.8592 -2.03898 3.8766 -76.1748 -32.5905 100.141 -22.59 -54.6772 -50.7544 22.5362 -17.1147 -137.814 8.88295 0.696684 3.63034 36.7752 12.1873 8.0868 13.4493 9.38395 11.3986 
513.829 139.159 612.353 -7.71228 26.8804 -93.3441 -165.893 -15.1431 124.061 -5.80009 14.3353 -2.15892 74.4969 -25.5717 -34.5468 13.6146 -1.74511 -22.0172 -100.308 53.7583 -58.6724 -0.0110839 -15.0702 0.0423684 -56.116 -0.676307 116.108 42.0291 -8.54791 48.6159 2.46018 8.85186 -93.9155 9.21669 3.15393 -7.98239 -2.47572 2.80073 -8.11233 -24.8943 5.40225 -6.67453 -4.88162 5.40226 -6.67453 99.4396 -14.0622 -89.6554 -26.6865 -57.9905 -34.2208 -121.57 40.9678 -58.4093 -21.118 -0.991744 0.239138 -76.0252 -35.6315 100.3 -20.9495 -46.5715 -43.7224 22.9034 -17.4174 -143.431 9.11678 0.987497 6.31529 32.7412 13.5154 13.1267 11.4381 8.69829 11.2227 
512.682 132.726 615.517 -4.22335 29.7612 -94.3761 -166.309 -14.6097 124.541 -6.23293 15.655 -2.77724 80.5087 -23.0517 -28.691 9.99591 -1.60382 -25.912 -103.149 54.4125 -54.9065 -0.0962204 -8.14164 0.0683529 -57.4885 -3.05745 112.828 44.1293 -9.05184 52.86 2.60995 8.32928 -93.8151 10.276 3.45772 -7.87451 -1.41512 3.10895 -8.01787 -23.8475 5.65994 -6.47998 -3.83492 5.65997 -6.47999 100.276 -13.8011 -87.394 -12.9402 -57.6471 -22.6436 -116.034 45.0411 -62.018 -25.6977 -0.891168 -0.83357 -75.7087 -31.4647 101.076 -21.202 -46.0052 -36.2496 21.8892 -17.9365 -147.235 8.61122 1.03046 7.23635 30.8456 13.6983 14.0113 13.1361 8.81834 10.4311 
513.878 130.759 615.561 -4.03009 29.1105 -94.2802 -165.507 -13.1873 126.322 -6.21148 18.0397 -2.71976 83.1813 -21.7768 -27.0243 5.15238 -1.92079 -27.6879 -107.715 55.6992 -51.1504 -0.0579841 -16.5303 0.0596811 -53.6811 3.03465 123.708 47.0669 -10.4929 53.1564 2.57918 8.28003 -93.4066 10.3803 3.57901 -7.07581 -1.30578 3.26495 -7.22551 -23.7725 5.53698 -5.67922 -3.75986 5.53698 -5.6792 100.535 -13.6717 -86.7222 -0.825196 -47.0292 -15.9767 -102.206 47.8757 -73.4815 -10.1311 -0.126397 -9.38324 -75.1364 -30.1697 102.26 -22.1406 -42.4134 -40.385 26.656 -21.4483 -145.908 7.65231 1.05649 8.70155 28.6709 11.3898 14.0155 13.838 6.74956 9.01029 
520.135 132.213 604.308 -4.08966 27.9279 -94.1277 -165.35 -11.5142 127.209 -6.40922 17.8535 -2.50856 80.5358 -24.3586 -28.6382 0.518101 -3.02683 -26.541 -115.094 56.3423 -45.1242 -0.140054 -15.6736 0.0848438 -50.9831 5.63799 128.668 46.5061 -9.37687 57.974 2.64313 8.03237 -92.9949 10.8745 3.87995 -6.31363 -0.806887 3.59893 -6.4775 -23.3074 5.59585 -4.85957 -3.29476 5.59587 -4.85958 101.404 -10.272 -84.4818 -1.25674 32.536 -13.9555 -1.02528 -11.8372 -133.299 32.3659 -4.80606 -20.5662 -75.1181 -32.082 102.177 -17.1076 -35.7529 -45.5985 31.2503 -23.276 -144.874 4.99087 0.906539 11.1707 28.6852 9.60254 14.138 14.9618 4.8408 7.41794 
520.881 140.434 593.995 -1.56551 25.8948 -95.7404 -165.067 -7.79644 129.372 -4.89782 15.1714 -6.34283 72.2226 -30.9966 -34.406 -5.16197 -4.35462 -25.5844 -119.529 58.6657 -39.8211 -0.214502 -9.83022 0.10011 -49.3874 5.06809 125.475 44.0902 -7.20836 65.7873 2.7958 7.48892 -91.9828 11.9782 4.62435 -4.45586 0.307137 4.42395 -4.65485 -22.2643 5.74886 -2.85902 -2.25166 5.74886 -2.85902 102.243 -4.88382 -82.0031 7.63055 66.6158 -28.1225 16.0254 -19.9335 -117.498 25.091 -3.70572 -21.1081 -74.9885 -32.6258 102.382 -10.9442 -27.6303 -53.2444 29.4258 -18.7829 -145.976 0.230982 0.214098 8.97506 30.8342 5.52402 13.3489 15.5745 0.614639 4.60221 
502.875 142.812 582.64 -2.02054 19.9403 -97.9137 -165.261 -4.44655 130.095 -5.80189 14.6766 -4.39106 61.2893 -38.5271 -44.2659 -7.90496 -5.54608 -23.8894 -140.123 56.5863 -23.6909 -0.307928 -15.8016 0.130707 -41.032 16.5754 133.821 43.6967 -6.51564 69.909 2.45991 7.62099 -90.8189 11.6754 4.50948 -2.09251 0.0102997 4.41303 -2.28922 -22.5854 4.92943 -0.637628 -2.5728 4.92942 -0.637631 102.586 0.926669 -80.7147 12.1621 64.4482 -43.0644 -7.54157 -3.02627 -101.311 -8.80134 0.506657 -12.6572 -75.3902 -34.2091 101.534 -6.02059 -21.4403 -59.8742 30.5538 -18.0736 -147.262 -5.75597 -0.427685 6.75932 32.3735 1.53217 13.0546 17.3835 -3.78491 0.741227 
